<svg width="172" height="43" viewBox="0 0 172 43" fill="none" xmlns="http://www.w3.org/2000/svg">
<path d="M64.4411 32.5533C61.9906 32.5533 60.0776 31.8874 58.7019 30.5555C57.325 29.2249 56.6365 27.3531 56.6365 24.9402C56.6365 23.5795 56.8976 22.3251 57.42 21.1786C57.9424 20.0291 58.7459 19.0998 59.8309 18.3889C60.9158 17.681 62.2517 17.327 63.8389 17.327C65.3252 17.327 66.6109 17.6569 67.6959 18.3169C68.7809 18.978 69.6027 19.8593 70.1691 20.9626C70.7354 22.0659 71.0129 23.2658 71.0129 24.5676C71.0129 24.9312 70.8878 25.2377 70.6354 25.4855C70.3829 25.7333 70.0469 25.8581 69.6253 25.8581H59.4117C59.5717 27.1994 60.0939 28.2433 60.9787 28.9897C61.8623 29.7371 63.0975 30.111 64.6847 30.111C65.528 30.111 66.2662 30.0341 66.8992 29.8806C67.5322 29.7271 68.1503 29.5068 68.7531 29.2201C68.9142 29.1432 69.0929 29.1049 69.2949 29.1049C69.6172 29.1049 69.8985 29.2105 70.1388 29.4216C70.3805 29.6317 70.5013 29.8998 70.5013 30.2262C70.5013 30.6473 70.2402 31.0013 69.7178 31.288C68.9338 31.7092 68.1603 32.0254 67.3957 32.2365C66.6311 32.4476 65.6469 32.5533 64.4411 32.5533ZM59.4099 23.7343H68.2981C68.239 22.7961 67.9829 22.0106 67.5298 21.3766C67.078 20.7454 66.521 20.281 65.859 19.9835C65.1957 19.6871 64.5223 19.539 63.8389 19.539C63.1555 19.539 62.4828 19.6871 61.8188 19.9835C61.1556 20.281 60.603 20.7454 60.1612 21.3766C59.7195 22.0088 59.4684 22.7943 59.4061 23.7343H59.4099ZM79.5992 32.5533C77.5904 32.5533 75.7624 32.1219 74.1148 31.2574C73.7725 31.0283 73.6013 30.7126 73.6013 30.3107C73.6013 30.0035 73.7121 29.7353 73.9335 29.5062C74.1539 29.2759 74.4352 29.1607 74.7774 29.1607C74.9574 29.1607 75.1361 29.199 75.3193 29.2759C75.9625 29.5435 76.6055 29.7541 77.2487 29.9058C77.8906 30.0593 78.6137 30.1362 79.4198 30.1362C81.65 30.1362 82.7652 29.4564 82.7652 28.097C82.7652 27.6555 82.509 27.32 81.9968 27.0891C81.4846 26.8582 80.6456 26.6001 79.4802 26.3152C78.2946 26.0465 77.3154 25.7686 76.5426 25.4819C75.7686 25.1952 75.1054 24.7596 74.5528 24.1752C74.0002 23.5909 73.7221 22.82 73.7221 21.8625C73.7221 20.5211 74.2294 19.4292 75.2438 18.5869C76.2581 17.7446 77.7099 17.3234 79.5992 17.3234C81.1459 17.3234 82.6022 17.5628 83.9678 18.0433C84.2496 18.1202 84.4656 18.2635 84.6153 18.4753C84.7664 18.6864 84.8419 18.9067 84.8419 19.1358C84.8419 19.443 84.7286 19.7112 84.4964 19.9403C84.2647 20.1707 83.9785 20.2859 83.6374 20.2859C83.5368 20.2859 83.4057 20.2666 83.2447 20.2283C82.0793 19.884 80.9339 19.7118 79.8087 19.7118C78.7251 19.7118 77.8768 19.8984 77.2638 20.2697C76.6508 20.641 76.3444 21.1264 76.3444 21.7203C76.3444 22.295 76.6276 22.7162 77.1883 22.9838C77.7509 23.2525 78.6244 23.5111 79.8087 23.7577C80.9943 24.0457 81.9609 24.3282 82.7029 24.6036C83.4454 24.882 84.081 25.3176 84.6153 25.9102C85.1477 26.5042 85.4139 27.2991 85.4139 28.295C85.4139 29.5212 84.9066 30.5363 83.8923 31.3402C82.8779 32.1453 81.4469 32.5461 79.5992 32.5461V32.5533ZM90.4459 32.4093C90.0646 32.4093 89.7436 32.2846 89.4831 32.0349C89.2214 31.7866 89.0904 31.4806 89.0904 31.1171V12.4712C89.0904 12.1076 89.2214 11.7963 89.4831 11.5353C89.7436 11.2774 90.0646 11.1483 90.4459 11.1483C90.6283 11.1456 90.8094 11.1785 90.9779 11.2451C91.1464 11.3116 91.2989 11.4104 91.4258 11.5353C91.5573 11.6564 91.6613 11.802 91.7315 11.9629C91.8016 12.1239 91.8363 12.2969 91.8336 12.4712V24.2238L99.0038 17.903C99.3059 17.6533 99.6074 17.5286 99.91 17.5286C100.372 17.5286 100.709 17.6533 100.92 17.903C101.132 18.1526 101.237 18.4496 101.237 18.7939C101.237 19.1191 101.066 19.4448 100.724 19.7712L96.3853 23.4787L101.841 30.3719C102.043 30.6203 102.143 30.8782 102.143 31.1458C102.143 31.5297 102.013 31.8364 101.751 32.0637C101.49 32.2941 101.159 32.4093 100.756 32.4093C100.556 32.4093 100.355 32.3612 100.152 32.2653C99.9483 32.1694 99.7798 32.0355 99.6419 31.864L94.4578 25.1399L91.8373 27.4077V31.1152C91.8373 31.4788 91.7014 31.7848 91.4295 32.0331C91.159 32.2828 90.8324 32.4075 90.4478 32.4075L90.4459 32.4093ZM109.129 32.5533C108.246 32.5533 107.427 32.3805 106.675 32.0349C105.922 31.6906 105.325 31.1878 104.881 30.5267C104.44 29.8667 104.221 29.1054 104.221 28.241C104.221 26.824 104.809 25.6943 105.984 24.852C107.16 24.0084 108.883 23.5867 111.153 23.5867H114.797V23.3581C114.797 22.0934 114.47 21.1834 113.815 20.6279C113.16 20.0723 112.142 19.7945 110.757 19.7945C109.993 19.7945 109.315 19.8521 108.723 19.9673C108.131 20.0825 107.472 20.2553 106.749 20.4857C106.588 20.524 106.457 20.5433 106.358 20.5433C106.056 20.5433 105.795 20.4376 105.574 20.2265C105.353 20.0154 105.242 19.7586 105.242 19.4526C105.242 18.9355 105.503 18.5712 106.026 18.3601C107.734 17.6713 109.471 17.327 111.236 17.327C112.623 17.327 113.794 17.597 114.748 18.1315C115.702 18.6661 116.405 19.3621 116.856 20.2139C117.308 21.0657 117.536 21.9898 117.536 22.9856V31.1171C117.536 31.4806 117.401 31.7866 117.13 32.0349C117.001 32.1564 116.848 32.2521 116.68 32.3164C116.512 32.3806 116.332 32.4122 116.15 32.4093C115.769 32.4093 115.448 32.2846 115.188 32.0349C114.927 31.7866 114.797 31.4806 114.797 31.1171V30.3719C113.31 31.8274 111.422 32.5551 109.133 32.5551L109.129 32.5533ZM110.154 30.2549C111.038 30.2549 111.892 30.0485 112.716 29.6358C113.539 29.2242 114.232 28.7125 114.793 28.1006V25.6889H111.508C108.475 25.6889 106.958 26.4453 106.958 27.9566C106.958 28.6454 107.204 29.1985 107.694 29.6214C108.187 30.0438 109.005 30.2549 110.149 30.2549H110.154ZM123.502 32.4093C123.121 32.4093 122.8 32.2846 122.54 32.0349C122.278 31.7866 122.147 31.4806 122.147 31.1171V12.4712C122.144 12.2984 122.177 12.1268 122.244 11.9664C122.312 11.806 122.412 11.66 122.54 11.5371C122.8 11.2792 123.121 11.1501 123.502 11.1501C123.905 11.1501 124.239 11.2761 124.497 11.5227C124.759 11.7723 124.89 12.0884 124.89 12.4712V31.1171C124.89 31.4806 124.754 31.7866 124.482 32.0349C124.212 32.2846 123.885 32.4093 123.501 32.4093H123.502ZM133.568 32.5533C132.684 32.5533 131.865 32.3805 131.113 32.0349C130.361 31.6906 129.763 31.1878 129.32 30.5267C128.878 29.8667 128.659 29.1054 128.659 28.241C128.659 26.824 129.247 25.6943 130.422 24.852C131.598 24.0084 133.321 23.5867 135.591 23.5867H139.235V23.3581C139.235 22.0934 138.909 21.1834 138.253 20.6279C137.598 20.0723 136.581 19.7945 135.195 19.7945C134.431 19.7945 133.753 19.8521 133.162 19.9673C132.569 20.0825 131.911 20.2553 131.187 20.4857C131.026 20.524 130.896 20.5433 130.796 20.5433C130.494 20.5433 130.233 20.4376 130.013 20.2265C129.791 20.0154 129.68 19.7586 129.68 19.4526C129.68 18.9355 129.942 18.5712 130.464 18.3601C132.172 17.6713 133.909 17.327 135.675 17.327C137.061 17.327 138.232 17.597 139.186 18.1315C140.14 18.6661 140.843 19.3621 141.295 20.2139C141.747 21.0657 141.975 21.9898 141.975 22.9856V31.1171C141.975 31.4806 141.839 31.7866 141.569 32.0349C141.44 32.1564 141.287 32.2521 141.118 32.3164C140.95 32.3806 140.77 32.4122 140.589 32.4093C140.207 32.4093 139.886 32.2846 139.626 32.0349C139.365 31.7866 139.235 31.4806 139.235 31.1171V30.3719C137.749 31.8274 135.86 32.5551 133.571 32.5551L133.568 32.5533ZM134.593 30.2549C135.476 30.2549 136.33 30.0485 137.155 29.6358C137.978 29.2242 138.671 28.7125 139.231 28.1006V25.6889H135.946C132.913 25.6889 131.397 26.4453 131.397 27.9566C131.397 28.6454 131.643 29.1985 132.133 29.6214C132.625 30.0438 133.444 30.2549 134.587 30.2549H134.593ZM151.527 32.5533C148.594 32.5533 147.128 31.2893 147.128 28.7611V19.8521H144.989C144.828 19.8521 144.692 19.7981 144.581 19.6956C144.47 19.5899 144.415 19.4603 144.415 19.3068C144.415 19.116 144.506 18.9535 144.687 18.8209L148.784 14.9999C148.964 14.8271 149.134 14.7407 149.293 14.7407C149.37 14.7398 149.447 14.7548 149.517 14.7846C149.587 14.8144 149.65 14.8584 149.701 14.9135C149.811 15.0287 149.865 15.1624 149.865 15.3149V17.6132H153.271C153.612 17.6132 153.894 17.7188 154.115 17.93C154.337 18.1411 154.447 18.4092 154.447 18.7345C154.45 18.8806 154.421 19.0257 154.364 19.1613C154.307 19.2969 154.223 19.4204 154.115 19.5246C153.894 19.7442 153.612 19.8539 153.271 19.8539H149.865V28.5289C149.865 29.2753 150.052 29.7492 150.424 29.9508C150.796 30.1524 151.262 30.2531 151.825 30.2531C152.233 30.2522 152.639 30.194 153.03 30.0804L153.286 30.0228C153.377 30.0035 153.493 29.994 153.634 29.994C153.914 29.994 154.165 30.0948 154.389 30.2963C154.609 30.4967 154.719 30.7409 154.719 31.0289C154.719 31.4693 154.488 31.804 154.026 32.0331C153.243 32.3787 152.41 32.5515 151.525 32.5515L151.527 32.5533ZM164.394 32.5533C161.943 32.5533 160.03 31.8874 158.655 30.5555C157.278 29.2249 156.589 27.3531 156.589 24.9402C156.589 23.5795 156.85 22.3251 157.373 21.1786C157.895 20.0291 158.699 19.0998 159.784 18.3889C160.869 17.681 162.204 17.327 163.792 17.327C165.278 17.327 166.564 17.6569 167.649 18.3169C168.734 18.978 169.555 19.8593 170.122 20.9626C170.688 22.0659 170.966 23.2658 170.966 24.5676C170.966 24.9312 170.84 25.2377 170.588 25.4855C170.336 25.7333 170 25.8581 169.578 25.8581H159.364C159.524 27.1994 160.047 28.2433 160.931 28.9897C161.815 29.7371 163.05 30.111 164.637 30.111C165.481 30.111 166.219 30.0341 166.852 29.8806C167.485 29.7271 168.103 29.5068 168.706 29.2201C168.867 29.1432 169.046 29.1049 169.248 29.1049C169.57 29.1049 169.851 29.2105 170.092 29.4216C170.333 29.6317 170.454 29.8998 170.454 30.2262C170.454 30.6473 170.193 31.0013 169.671 31.288C168.886 31.7092 168.113 32.0254 167.348 32.2365C166.584 32.4476 165.6 32.5533 164.394 32.5533ZM159.363 23.7343H168.251C168.192 22.7961 167.936 22.0106 167.482 21.3766C167.031 20.7454 166.474 20.281 165.812 19.9835C165.148 19.6871 164.475 19.539 163.792 19.539C163.108 19.539 162.435 19.6871 161.771 19.9835C161.108 20.281 160.556 20.7454 160.114 21.3766C159.672 22.0088 159.421 22.7943 159.359 23.7343H159.363ZM43.4551 20.4191L43.4174 20.5181C43.4174 20.5181 42.6396 26.5114 36.9192 31.6318L36.5794 31.9198H36.5945C35.2654 33.1076 33.5738 34.3585 31.6236 35.5265C35.8639 34.7418 40.7233 33.2156 44.0045 30.8345C45.9057 27.764 46.8968 24.4812 46.7344 21.5259C46.7156 21.184 46.6835 20.8834 46.6438 20.6153C45.8698 20.1023 44.8786 19.7981 43.457 20.4173L43.4551 20.4191ZM28.586 41.0987C26.4281 41.1527 24.1305 40.6236 21.933 39.6139C19.4277 40.2564 16.8017 40.611 14.1548 40.5318C14.8968 40.8467 15.6765 41.1257 16.5015 41.3561C28.484 44.7145 38.6372 38.8652 43.5628 31.522C43.2267 32.0133 42.7 32.7405 41.958 33.635C41.3294 34.3909 35.7279 40.9133 28.586 41.0987ZM37.361 18.3079C36.5416 21.5529 33.8079 28.3994 25.537 28.7917C27.0379 29.1751 28.6521 29.1661 30.1813 28.7701C32.0503 28.2842 39.3263 26.1568 40.9839 18.4465C41.2104 17.2496 42.3772 9.15957 33.0924 5.00204C36.0942 8.59083 38.4956 13.821 37.3591 18.3079H37.361ZM9.69557 15.583C10.0883 13.5313 10.783 11.4849 11.727 9.58072C10.0845 11.1195 8.7686 12.7304 7.88695 14.1378C6.69191 16.0456 5.81025 18.0397 5.23633 20.0447C6.46347 18.5923 7.9738 17.0391 9.69557 15.5812V15.583Z" fill="black"/>
<path opacity="0.6" d="M30.2342 3.95654C31.2839 4.26611 32.2354 4.61707 33.0944 5.00042C31.4519 3.03865 29.6301 1.56282 28.1047 0.977885C21.0967 -1.71821 14.9535 3.07824 11.7271 9.5773C16.1448 5.43777 22.9563 1.80939 30.2342 3.95474V3.95654Z" fill="black"/>
<path d="M25.5114 9.60245L25.7002 9.61325C26.2816 9.66724 26.8367 9.77163 27.3653 9.91561C27.3672 9.91561 27.3691 9.91561 27.371 9.91741C32.4022 11.2907 34.9792 16.4327 33.5822 20.3742C32.6307 23.0505 29.5364 25.1797 27.6636 25.86C26.4987 26.2847 25.2414 26.3567 24.271 25.6548C22.149 24.1178 24.0633 22.2172 24.743 21.5117C25.6341 20.5866 27.3162 18.884 26.6233 17.4028C25.821 15.6858 23.2402 15.3204 21.4316 17.1922C19.623 19.064 18.6752 21.4703 20.4876 24.8737C21.6015 26.9687 23.4611 28.2573 25.5397 28.7882C33.8125 28.3959 36.5462 21.5477 37.3637 18.3044C38.4964 13.8176 36.0988 8.58556 33.097 4.99858C32.2361 4.61342 31.2846 4.26066 30.2368 3.9547C22.957 1.80934 16.1473 5.43953 11.7296 9.57905C10.7857 11.4832 10.0872 13.5296 9.69824 15.5814C13.9649 11.9638 19.5531 8.95272 25.5114 9.60245Z" fill="black"/>
<path opacity="0.6" d="M25.5114 9.60245L25.7002 9.61325C26.2816 9.66724 26.8367 9.77163 27.3653 9.91561C27.3672 9.91561 27.3691 9.91561 27.371 9.91741C32.4022 11.2907 34.9792 16.4327 33.5822 20.3742C32.6307 23.0505 29.5364 25.1797 27.6636 25.86C26.4987 26.2847 25.2414 26.3567 24.271 25.6548C22.149 24.1178 24.0633 22.2172 24.743 21.5117C25.6341 20.5866 27.3162 18.884 26.6233 17.4028C25.821 15.6858 23.2402 15.3204 21.4316 17.1922C19.623 19.064 18.6752 21.4703 20.4876 24.8737C21.6015 26.9687 23.4611 28.2573 25.5397 28.7882C33.8125 28.3959 36.5462 21.5477 37.3637 18.3044C38.4964 13.8176 36.0988 8.58556 33.097 4.99858C32.2361 4.61342 31.2846 4.26066 30.2368 3.9547C22.957 1.80934 16.1473 5.43953 11.7296 9.57905C10.7857 11.4832 10.0872 13.5296 9.69824 15.5814C13.9649 11.9638 19.5531 8.95272 25.5114 9.60245Z" fill="black"/>
<path opacity="0.52" d="M5.23652 20.0413C3.69787 21.8591 2.59345 23.5095 2.04595 24.602C0.754624 27.1901 -3.13447 37.2473 10.062 40.0514C11.4213 40.3394 12.79 40.4924 14.1512 40.5338C5.82555 36.9972 2.82377 28.4247 5.23463 20.0431L5.23652 20.0413Z" fill="black"/>
<path d="M26.0048 36.1641L25.6841 36.1546L25.8954 36.1679L26.0086 36.1641H26.0048Z" fill="black"/>
<path opacity="0.52" d="M26.0048 36.1641L25.6841 36.1546L25.8954 36.1679L26.0086 36.1641H26.0048Z" fill="black"/>
<path d="M31.6223 35.5283C33.5744 34.3585 35.266 33.1112 36.5932 31.9215H36.5781C33.7726 34.3333 30.8275 35.6507 27.9824 36.0431C29.0963 35.9387 30.331 35.7695 31.6223 35.5301V35.5283Z" fill="black"/>
<path opacity="0.52" d="M31.6223 35.5283C33.5744 34.3585 35.266 33.1112 36.5932 31.9215H36.5781C33.7726 34.3333 30.8275 35.6507 27.9824 36.0431C29.0963 35.9387 30.331 35.7695 31.6223 35.5301V35.5283Z" fill="black"/>
<path d="M11.586 27.0855C10.3003 25.0265 9.3828 22.5536 9.32616 19.6631C9.30162 18.3313 9.43188 16.9581 9.6943 15.583C7.97253 17.0408 6.46598 18.5941 5.23506 20.0465C2.82609 28.4281 5.82786 37.0006 14.1517 40.5371C16.8004 40.6163 19.4265 40.2618 21.9298 39.6193C17.1025 37.3983 12.7848 32.852 11.5841 27.0891L11.586 27.0855Z" fill="black"/>
<path opacity="0.52" d="M11.586 27.0855C10.3003 25.0265 9.3828 22.5536 9.32616 19.6631C9.30162 18.3313 9.43188 16.9581 9.6943 15.583C7.97253 17.0408 6.46598 18.5941 5.23506 20.0465C2.82609 28.4281 5.82786 37.0006 14.1517 40.5371C16.8004 40.6163 19.4265 40.2618 21.9298 39.6193C17.1025 37.3983 12.7848 32.852 11.5841 27.0891L11.586 27.0855Z" fill="black"/>
<path d="M21.9596 9.85795C21.9596 9.85795 21.7104 9.90654 21.2951 10.0379C22.5713 9.66537 23.9815 9.48719 25.5089 9.60598C19.5487 8.95805 13.9624 11.9673 9.69386 15.5813C9.42955 16.9545 9.30117 18.3296 9.32572 19.6614C9.37858 22.5537 10.2999 25.0248 11.5855 27.0856L11.4666 26.4736C9.09917 12.2841 21.9596 9.85795 21.9596 9.85795Z" fill="black"/>
<path opacity="0.6" d="M21.9596 9.85795C21.9596 9.85795 21.7104 9.90654 21.2951 10.0379C22.5713 9.66537 23.9815 9.48719 25.5089 9.60598C19.5487 8.95805 13.9624 11.9673 9.69386 15.5813C9.42955 16.9545 9.30117 18.3296 9.32572 19.6614C9.37858 22.5537 10.2999 25.0248 11.5855 27.0856L11.4666 26.4736C9.09917 12.2841 21.9596 9.85795 21.9596 9.85795Z" fill="black"/>
<path opacity="0.52" d="M21.9596 9.85795C21.9596 9.85795 21.7104 9.90654 21.2951 10.0379C22.5713 9.66537 23.9815 9.48719 25.5089 9.60598C19.5487 8.95805 13.9624 11.9673 9.69386 15.5813C9.42955 16.9545 9.30117 18.3296 9.32572 19.6614C9.37858 22.5537 10.2999 25.0248 11.5855 27.0856L11.4666 26.4736C9.09917 12.2841 21.9596 9.85795 21.9596 9.85795Z" fill="black"/>
<path d="M27.3703 9.91735C27.3685 9.91735 27.3666 9.91735 27.3647 9.9155C27.3666 9.91735 27.3685 9.91735 27.3703 9.91735Z" fill="black"/>
<path opacity="0.6" d="M27.3703 9.91735C27.3685 9.91735 27.3666 9.91735 27.3647 9.9155C27.3666 9.91735 27.3685 9.91735 27.3703 9.91735Z" fill="black"/>
<path opacity="0.52" d="M27.3703 9.91735C27.3685 9.91735 27.3666 9.91735 27.3647 9.9155C27.3666 9.91735 27.3685 9.91735 27.3703 9.91735Z" fill="black"/>
<path opacity="0.24" d="M44.0057 30.8347C44.0038 30.8347 44.0038 30.8365 44.0019 30.8365L43.5586 31.524L44.0057 30.8347Z" fill="black"/>
<path d="M21.9326 39.6155C24.1283 40.6234 26.4258 41.1562 28.5856 41.1004C35.7257 40.9168 41.329 34.3943 41.9558 33.6366C42.6958 32.7439 43.2245 32.0168 43.5605 31.5237C43.7126 31.297 43.8605 31.0678 44.0042 30.8361C40.7192 33.2173 35.8635 34.7417 31.6233 35.5282C28.8329 37.1984 25.5064 38.6994 21.9345 39.6137L21.9326 39.6155Z" fill="black"/>
<path opacity="0.24" d="M21.9326 39.6155C24.1283 40.6234 26.4258 41.1562 28.5856 41.1004C35.7257 40.9168 41.329 34.3943 41.9558 33.6366C42.6958 32.7439 43.2245 32.0168 43.5605 31.5237C43.7126 31.297 43.8605 31.0678 44.0042 30.8361C40.7192 33.2173 35.8635 34.7417 31.6233 35.5282C28.8329 37.1984 25.5064 38.6994 21.9345 39.6137L21.9326 39.6155Z" fill="black"/>
<path d="M26.0048 36.1638L25.8915 36.1674C25.8198 36.1692 25.7499 36.1602 25.6801 36.1548C23.7676 36.0882 21.9364 35.6077 20.2618 34.769L20.2599 34.7726C20.2599 34.7726 14.785 32.2205 11.585 27.0874C12.7857 32.8522 17.1033 37.3967 21.9307 39.614C25.5026 38.6961 28.8291 37.1969 31.6194 35.5285C30.3281 35.7679 29.0953 35.937 27.9796 36.0414C27.3242 36.1295 26.6628 36.1698 26.001 36.162L26.0048 36.1638Z" fill="black"/>
<path opacity="0.52" d="M26.0048 36.1638L25.8915 36.1674C25.8198 36.1692 25.7499 36.1602 25.6801 36.1548C23.7676 36.0882 21.9364 35.6077 20.2618 34.769L20.2599 34.7726C20.2599 34.7726 14.785 32.2205 11.585 27.0874C12.7857 32.8522 17.1033 37.3967 21.9307 39.614C25.5026 38.6961 28.8291 37.1969 31.6194 35.5285C30.3281 35.7679 29.0953 35.937 27.9796 36.0414C27.3242 36.1295 26.6628 36.1698 26.001 36.162L26.0048 36.1638Z" fill="black"/>
<path opacity="0.24" d="M26.0048 36.1638L25.8915 36.1674C25.8198 36.1692 25.7499 36.1602 25.6801 36.1548C23.7676 36.0882 21.9364 35.6077 20.2618 34.769L20.2599 34.7726C20.2599 34.7726 14.785 32.2205 11.585 27.0874C12.7857 32.8522 17.1033 37.3967 21.9307 39.614C25.5026 38.6961 28.8291 37.1969 31.6194 35.5285C30.3281 35.7679 29.0953 35.937 27.9796 36.0414C27.3242 36.1295 26.6628 36.1698 26.001 36.162L26.0048 36.1638Z" fill="black"/>
<path d="M20.2624 34.7706L20.2643 34.767C17.0284 33.1472 14.3797 30.2009 12.8863 26.3386C11.9518 23.9179 10.8021 19.2024 14.6289 14.5103C15.9127 12.9355 18.2159 10.9288 21.297 10.0343C21.7123 9.90467 21.9615 9.85428 21.9615 9.85428C21.9615 9.85428 9.09919 12.284 11.4647 26.47C11.4987 26.677 11.5403 26.8803 11.5837 27.0819C14.7856 32.2149 20.2605 34.767 20.2605 34.767L20.2624 34.7706Z" fill="black"/>
<path opacity="0.6" d="M20.2624 34.7706L20.2643 34.767C17.0284 33.1472 14.3797 30.2009 12.8863 26.3386C11.9518 23.9179 10.8021 19.2024 14.6289 14.5103C15.9127 12.9355 18.2159 10.9288 21.297 10.0343C21.7123 9.90467 21.9615 9.85428 21.9615 9.85428C21.9615 9.85428 9.09919 12.284 11.4647 26.47C11.4987 26.677 11.5403 26.8803 11.5837 27.0819C14.7856 32.2149 20.2605 34.767 20.2605 34.767L20.2624 34.7706Z" fill="black"/>
<path opacity="0.52" d="M20.2624 34.7706L20.2643 34.767C17.0284 33.1472 14.3797 30.2009 12.8863 26.3386C11.9518 23.9179 10.8021 19.2024 14.6289 14.5103C15.9127 12.9355 18.2159 10.9288 21.297 10.0343C21.7123 9.90467 21.9615 9.85428 21.9615 9.85428C21.9615 9.85428 9.09919 12.284 11.4647 26.47C11.4987 26.677 11.5403 26.8803 11.5837 27.0819C14.7856 32.2149 20.2605 34.767 20.2605 34.767L20.2624 34.7706Z" fill="black"/>
<path opacity="0.24" d="M20.2624 34.7706L20.2643 34.767C17.0284 33.1472 14.3797 30.2009 12.8863 26.3386C11.9518 23.9179 10.8021 19.2024 14.6289 14.5103C15.9127 12.9355 18.2159 10.9288 21.297 10.0343C21.7123 9.90467 21.9615 9.85428 21.9615 9.85428C21.9615 9.85428 9.09919 12.284 11.4647 26.47C11.4987 26.677 11.5403 26.8803 11.5837 27.0819C14.7856 32.2149 20.2605 34.767 20.2605 34.767L20.2624 34.7706Z" fill="black"/>
<path d="M45.6743 16.1718C45.2439 15.7632 44.6265 16.071 43.9809 16.7117L45.359 18.5871C45.359 18.5871 44.8493 18.4737 44.3131 18.9885C44.1753 19.1216 44.0488 19.2908 43.9355 19.4654C43.9733 19.4294 46.1255 17.1401 46.6409 20.6173C47.7359 21.3372 48.4023 22.4621 49.2462 21.9725C50.2147 21.411 47.2828 17.7016 45.6705 16.1718H45.6743Z" fill="black"/>
<path d="M43.9375 19.4653C43.6958 19.8433 43.5259 20.2393 43.4561 20.4192C44.8758 19.8019 45.8669 20.1061 46.6428 20.6172C46.1256 17.1436 43.9733 19.4294 43.9375 19.4653Z" fill="black"/>
<path d="M43.938 19.4673C44.0513 19.2927 44.1759 19.1253 44.3156 18.9903C44.848 18.4756 45.3615 18.589 45.3615 18.589L43.9833 16.7136C43.4037 17.2895 42.7996 18.1354 42.2842 18.9813L43.938 19.4673Z" fill="black"/>
<path d="M42.2823 18.9849C41.2137 20.7487 40.5209 22.5233 41.2062 21.9257C42.0614 21.1806 42.8052 20.7019 43.4585 20.4193C43.5283 20.2429 43.6982 19.8434 43.9399 19.4654L43.938 19.4672L42.2823 18.9813V18.9849Z" fill="black"/>
</svg>
